<?xml version="1.0" standalone="no"?><!DOCTYPE svg PUBLIC "-//W3C//DTD SVG 1.1//EN" "http://www.w3.org/Graphics/SVG/1.1/DTD/svg11.dtd"><svg t="1678196739045" class="icon" viewBox="0 0 1227 1024" version="1.1" xmlns="http://www.w3.org/2000/svg" p-id="3025" xmlns:xlink="http://www.w3.org/1999/xlink" width="239.6484375" height="200"><path d="M678.445344 75.541927c-48.959953 8.849991-135.402869 116.535887-166.144839 195.691811S484.569532 436.729578 416.549597 479.006537c-164.625841 109.602894-194.718812-29.118972-296.591713 51.09995-59.004943 46.479955-53.384948 193.699813-22.804978 248.44176C137.969867 854.916173 215.738791 924.380106 332.599678 942.215089c79.981923 12.080988 192.769814-45.006956 307.477703-40.285961 158.562847-8.496992 233.971774 68.121934 322.435688 45.919956 130.489874-29.811971 191.059815-96.192907 190.409816-174.153832-6.032994-105.840898-69.787933-57.102945-230.946776-294.688715C823.599204 309.572701 820.708207 185.085821 800.705226 139.591865s-73.299929-72.88593-122.259882-64.049938z m84.348919-65.171937A176.824829 176.824829 0 0 1 874.049155 131.817873l32.024969 121.816882a701.826321 701.826321 0 0 0 221.963785 354.313657l32.157969 27.569974a191.384815 191.384815 0 0 1 4.867996 286.354723l-18.305983 16.800983a324.117687 324.117687 0 0 1-321.742689 68.652934l-4.528995-1.474998a586.293433 586.293433 0 0 0-354.740657-5.191995 360.376652 360.376652 0 0 1-325.149686-60.479942l-14.028986-10.931989A327.480683 327.480683 0 0 1 6.756993 604.570416l6.135995-29.767972A179.568826 179.568826 0 0 1 247.659761 441.419573 130.696874 130.696874 0 0 0 420.119594 334.767676q7.743993-59.816942 36.258965-119.116884 47.056955-97.875905 130.283874-171.484835A176.07283 176.07283 0 0 1 762.794263 10.36999z" fill="#2c2c2c" p-id="3026"></path><path d="M786.942239 288.890721q21.314979 118.010886 72.63593 213.895793 61.187941 114.396889 174.655831 207.787799a81.795921 81.795921 0 0 1 11.166989 115.133889 80.910922 80.910922 0 0 1-5.679994 6.224994l-5.412995 5.339995A172.885833 172.885833 0 0 1 862.734166 879.69915l-17.774983-5.353995a155.818849 155.818849 0 0 1-110.472893-156.482849l4.985995-105.767898a73.756929 73.756929 0 0 0-70.186932-77.149925c-1.165999 0-2.315998-0.073-3.481997-0.073a85.837917 85.837917 0 0 1-85.365917-76.899926l-1.474999-14.381986a190.838815 190.838815 0 0 1 55.789946-155.715849l36.243965-35.712966a68.770934 68.770934 0 0 1 115.945888 36.745965zM234.841773 589.75943l54.874947 9.94299a408.804605 408.804605 0 0 0 149.859855-0.751999l117.405887-22.480978a74.095928 74.095928 0 0 1 87.991914 72.738929 151.939853 151.939853 0 0 1-78.402924 132.968872l-49.623952 27.466973a352.809659 352.809659 0 0 1-223.217784 40.182961A178.063828 178.063828 0 0 1 147.099858 715.589308l-6.341994-26.153975a81.795921 81.795921 0 0 1 94.083909-99.733903z" fill="#2c2c2c" p-id="3027"></path></svg>