<?xml version="1.0" standalone="no"?><!DOCTYPE svg PUBLIC "-//W3C//DTD SVG 1.1//EN" "http://www.w3.org/Graphics/SVG/1.1/DTD/svg11.dtd"><svg t="1678195238256" class="icon" viewBox="0 0 1024 1024" version="1.1" xmlns="http://www.w3.org/2000/svg" p-id="5057" xmlns:xlink="http://www.w3.org/1999/xlink" width="200" height="200"><path d="M506.14255193 680.88975285h82.98051438v291.89616238h-82.98051438zM805.8486451 521.76241345h87.86172113v451.02350178h-87.86172113z" fill="#7DD6EA" p-id="5058"></path><path d="M812.68233453 318.70421353c-1.9524827 0-2.92872403 0-4.88120674-0.97624135-9.76241345-2.92872403-16.59610288-12.69113749-13.66737884-23.4297923l44.9071019-180.60464898-180.604649-43.93086057c-9.76241345-2.92872403-16.59610288-12.69113749-13.66737883-23.42979229 2.92872403-9.76241345 12.69113749-16.59610288 23.42979229-13.66737885l199.15323458 48.81206731c9.76241345 2.92872403 16.59610288 12.69113749 13.66737885 23.42979227l-49.78830867 199.15323456c-1.9524827 8.78617211-9.76241345 14.64362017-18.54858554 14.6436202zM130.28963377 560.81206729c-6.83368941 0-12.69113749-2.92872403-16.59610287-8.78617213-5.85744807-8.78617211-2.92872403-20.50106826 6.83368942-26.35851632l64.43192883-39.04965382c8.78617211-5.85744807 20.50106826-2.92872403 26.35851632 6.83368941 5.85744807 8.78617211 2.92872403 20.50106826-6.83368942 26.35851634l-64.43192882 39.04965382c-2.92872403 0.97624134-5.85744807 1.9524827-9.76241346 1.9524827z" fill="#256782" p-id="5059"></path><path d="M291.36945585 463.18793271c-6.83368941 0-12.69113749-2.92872403-16.59610288-8.78617212-5.85744807-8.78617211-2.92872403-20.50106826 6.83368941-26.35851632l570.12494596-344.61319509c8.78617211-5.85744807 20.50106826-2.92872403 26.35851636 6.83368941 5.85744807 8.78617211 2.92872403 20.50106826-6.83368943 26.35851634L301.13186931 461.23545005c-2.92872403 1.9524827-6.83368941 1.9524827-9.76241346 1.95248266zM300.15562796 992.31074217H155.67190879c-10.73865482 0-18.54858557-8.78617211-18.54858559-18.54858559v-201.10571725c0-10.73865482 8.78617211-18.54858557 18.54858559-18.54858558h144.48371917c10.73865482 0 18.54858557 8.78617211 18.54858557 18.54858558v201.10571725c0 9.76241345-8.78617211 18.54858557-18.54858557 18.54858559z m-125.9351336-38.0734125h106.41030669v-163.03230476H174.22049436v163.03230476zM596.93299709 992.31074217H452.44927789c-10.73865482 0-18.54858557-8.78617211-18.54858557-18.54858559v-338.755747c0-10.73865482 8.78617211-18.54858557 18.54858557-18.54858557h144.4837192c10.73865482 0 18.54858557 8.78617211 18.54858556 18.54858557v338.755747c0 9.76241345-8.78617211 18.54858557-18.54858556 18.54858559z m-125.93513361-38.0734125h106.4103067v-301.65857589H470.99786348v301.65857589zM893.71036623 992.31074217h-144.4837192c-10.73865482 0-18.54858557-8.78617211-18.54858556-18.54858559v-517.40791331c0-10.73865482 8.78617211-18.54858557 18.54858556-18.54858556h144.4837192c10.73865482 0 18.54858557 8.78617211 18.54858557 18.54858556v517.40791331c0 9.76241345-8.78617211 18.54858557-18.54858557 18.54858559z m-125.93513362-38.0734125h106.41030669V474.90282886h-106.41030669v479.33450081z" fill="#256782" p-id="5060"></path></svg>