<?xml version="1.0" standalone="no"?><!DOCTYPE svg PUBLIC "-//W3C//DTD SVG 1.1//EN" "http://www.w3.org/Graphics/SVG/1.1/DTD/svg11.dtd"><svg t="1678195346016" class="icon" viewBox="0 0 1024 1024" version="1.1" xmlns="http://www.w3.org/2000/svg" p-id="10918" xmlns:xlink="http://www.w3.org/1999/xlink" width="200" height="200"><path d="M623.829333 342.826667a21.802667 21.802667 0 0 0-22.912 4.48l-82.773333 80.426666a20.309333 20.309333 0 0 0-0.426667 28.672l0.426667 0.426667c8.234667 8.021333 21.333333 8.021333 29.568 0l47.189333-45.312v340.224c0 11.349333 9.386667 20.48 20.906667 20.48a20.650667 20.650667 0 0 0 20.906667-20.48v-389.973333a20.48 20.48 0 0 0-12.885334-18.944zM738.218667 770.688a21.802667 21.802667 0 0 0 22.912-4.437333l82.773333-80.469334a20.309333 20.309333 0 0 0 0.426667-28.672l-0.426667-0.426666a21.248 21.248 0 0 0-29.568 0l-47.189333 45.312V361.813333A20.650667 20.650667 0 0 0 746.24 341.333333a20.650667 20.650667 0 0 0-20.906667 20.48v389.973334c0 8.234667 5.12 15.786667 12.885334 18.901333z" fill="#000000" p-id="10919"></path><path d="M170.666667 213.333333m21.333333 0l597.333333 0q21.333333 0 21.333334 21.333334l0 0q0 21.333333-21.333334 21.333333l-597.333333 0q-21.333333 0-21.333333-21.333333l0 0q0-21.333333 21.333333-21.333334Z" fill="#000000" p-id="10920"></path><path d="M170.666667 469.333333m21.333333 0l256 0q21.333333 0 21.333333 21.333334l0 0q0 21.333333-21.333333 21.333333l-256 0q-21.333333 0-21.333333-21.333333l0 0q0-21.333333 21.333333-21.333334Z" fill="#000000" p-id="10921"></path><path d="M170.666667 725.333333m21.333333 0l341.333333 0q21.333333 0 21.333334 21.333334l0 0q0 21.333333-21.333334 21.333333l-341.333333 0q-21.333333 0-21.333333-21.333333l0 0q0-21.333333 21.333333-21.333334Z" fill="#000000" p-id="10922"></path></svg>